<svg width="73" height="30" viewBox="0 0 73 30" fill="none" xmlns="http://www.w3.org/2000/svg">
<path d="M13.707 24H11.8809V10.2715H3.83496V24H2.01953V8.5957H13.707V24ZM19.2715 22.4102H19.2285V29.0596H17.4668V13H19.2285V14.9336H19.2715C20.138 13.4727 21.4056 12.7422 23.0742 12.7422C24.4922 12.7422 25.5986 13.2363 26.3936 14.2246C27.1885 15.2057 27.5859 16.5234 27.5859 18.1777C27.5859 20.0182 27.1383 21.4935 26.2432 22.6035C25.348 23.7064 24.1234 24.2578 22.5693 24.2578C21.1442 24.2578 20.0449 23.6419 19.2715 22.4102ZM19.2285 17.9736V19.5098C19.2285 20.4193 19.5221 21.1927 20.1094 21.8301C20.7038 22.4603 21.4557 22.7754 22.3652 22.7754C23.4323 22.7754 24.2666 22.3672 24.8682 21.5508C25.4769 20.7344 25.7812 19.5993 25.7812 18.1455C25.7812 16.9209 25.4984 15.9613 24.9326 15.2666C24.3669 14.5719 23.6006 14.2246 22.6338 14.2246C21.6097 14.2246 20.7861 14.5827 20.1631 15.2988C19.54 16.0078 19.2285 16.8994 19.2285 17.9736ZM34.998 24.2578C33.3724 24.2578 32.0726 23.7458 31.0986 22.7217C30.1318 21.6904 29.6484 20.3262 29.6484 18.6289C29.6484 16.7812 30.1533 15.3382 31.1631 14.2998C32.1729 13.2614 33.5371 12.7422 35.2559 12.7422C36.8958 12.7422 38.1742 13.2471 39.0908 14.2568C40.0146 15.2666 40.4766 16.6667 40.4766 18.457C40.4766 20.2116 39.9788 21.6188 38.9834 22.6787C37.9951 23.7314 36.6667 24.2578 34.998 24.2578ZM35.127 14.2246C33.9954 14.2246 33.1003 14.6113 32.4414 15.3848C31.7826 16.151 31.4531 17.2109 31.4531 18.5645C31.4531 19.8678 31.7861 20.8955 32.4521 21.6475C33.1182 22.3994 34.0098 22.7754 35.127 22.7754C36.2656 22.7754 37.1393 22.4066 37.748 21.6689C38.3639 20.9313 38.6719 19.8822 38.6719 18.5215C38.6719 17.1465 38.3639 16.0866 37.748 15.3418C37.1393 14.597 36.2656 14.2246 35.127 14.2246ZM52.1318 18.9404H44.3652C44.3939 20.165 44.7233 21.1104 45.3535 21.7764C45.9837 22.4424 46.8503 22.7754 47.9531 22.7754C49.1921 22.7754 50.3307 22.3672 51.3691 21.5508V23.2051C50.4023 23.9069 49.124 24.2578 47.5342 24.2578C45.9801 24.2578 44.7591 23.7601 43.8711 22.7646C42.9831 21.762 42.5391 20.3548 42.5391 18.543C42.5391 16.8314 43.0225 15.4385 43.9893 14.3643C44.9632 13.2829 46.1699 12.7422 47.6094 12.7422C49.0488 12.7422 50.1624 13.2077 50.9502 14.1387C51.738 15.0697 52.1318 16.3623 52.1318 18.0166V18.9404ZM50.3271 17.4473C50.32 16.4303 50.0729 15.639 49.5859 15.0732C49.1061 14.5075 48.4365 14.2246 47.5771 14.2246C46.7464 14.2246 46.041 14.5218 45.4609 15.1162C44.8809 15.7106 44.5228 16.4876 44.3867 17.4473H50.3271ZM63.9375 24H61.4668L56.6113 18.7148H56.5684V24H54.8066V13H56.5684V18.0381H56.6113L61.2305 13H63.54L58.4375 18.3066L63.9375 24ZM72.6494 14.5039H69.3516V24H67.5898V14.5039H64.2812V13H72.6494V14.5039Z" fill="#D70C17"/>
</svg>
